#!OML:ASF H:\MichaelJackson\Top Level 1\Subject 1\Session 1\male.ASF
:FULLY-SPECIFIED
:DEGREES
1222
root -8.87853 17.0759 15.657 -172.123 -219.33 -185.726
lowerback 3.50856 4.29126 2.66115
upperback 2.01338 5.8633 4.59178
thorax -0.105903 2.95246 3.02154
lowerneck -5.56705 -11.3654 -4.8086
upperneck 12.8944 -15.6225 6.24134
head 5.68115 -7.42982 1.58451
rclavicle -1.08934e-013 -7.95139e-015
rhumerus -37.4447 3.86814 -86.3012
rradius 73.8224
rwrist -15.5836
rhand -27.0721 -29.4175
rfingers 7.12502
rthumb -0.48972 -59.3967
lclavicle -1.08934e-013 -7.95139e-015
lhumerus -65.6296 -18.3951 99.9283
lradius 110.878
lwrist 40.9655
lhand -16.5837 15.8235
lfingers 7.12502
lthumb 9.63704 45.5831
rfemur -28.8124 -4.93459 30.2555
rtibia 35.0147
rfoot -11.9047 11.1601
rtoes 41.0629
lfemur -47.5365 -3.0611 -14.5851
ltibia 82.8982
lfoot -5.67771 3.29572
ltoes 32.1079
1223
root -8.86044 17.0931 15.6883 -172.191 -219.39 -185.676
lowerback 3.64625 4.2524 2.67244
upperback 2.00849 5.81792 4.52148
thorax -0.177739 2.92915 2.93311
lowerneck -5.64744 -11.3231 -4.79558
upperneck 13.1606 -15.5878 6.29604
head 5.77965 -7.39876 1.58984
rclavicle 6.48038e-014 4.29375e-014
rhumerus -37.8759 3.5814 -86.5711
rradius 72.536
rwrist -15.2653
rhand -26.5307 -29.7354
rfingers 7.12502
rthumb 0.0331424 -59.7151
lclavicle 6.48038e-014 4.29375e-014
lhumerus -64.0039 -18.7179 99.7556
lradius 111.783
lwrist 41.8601
lhand -16.2091 16.025
lfingers 7.12502
lthumb 9.99839 45.7676
rfemur -28.2704 -4.95998 30.2152
rtibia 34.4541
rfoot -11.8645 10.9436
rtoes 40.9899
lfemur -48.643 -3.76291 -14.3503
ltibia 82.345
lfoot -4.58881 3.5306
ltoes 31.9068
1224
root -8.83657 17.1084 15.7225 -172.422 -219.526 -185.852
lowerback 3.72274 4.23429 2.9493
upperback 1.99817 5.80566 4.45098
thorax -0.195765 2.92407 2.70264
lowerneck -5.71141 -11.3374 -4.77535
upperneck 13.4707 -15.6404 6.39486
head 5.89758 -7.40525 1.59926
rclavicle -4.33351e-014 -3.33958e-014
rhumerus -38.3634 3.15633 -86.8461
rradius 71.2126
rwrist -14.7926
rhand -26.7617 -29.9636
rfingers 7.12502
rthumb -0.189907 -59.9433
lclavicle -4.33351e-014 -3.33958e-014
lhumerus -62.333 -19.3008 99.5306
lradius 112.754
lwrist 43.2188
lhand -15.7739 16.5024
lfingers 7.12502
lthumb 10.4182 46.2243
rfemur -27.7245 -5.09391 30.3617
rtibia 33.977
rfoot -11.828 10.9077
rtoes 40.7558
lfemur -49.6467 -4.50695 -13.9095
ltibia 81.632
lfoot -3.70907 3.32051
ltoes 31.7079
1225
root -8.81633 17.1183 15.7516 -172.655 -219.633 -185.995
lowerback 3.9057 4.15062 3.19073
upperback 1.99162 5.71192 4.39603
thorax -0.272763 2.87766 2.50241
lowerneck -5.80008 -11.2673 -4.87732
upperneck 13.8323 -15.579 6.55723
head 6.04438 -7.35562 1.65285
rclavicle -6.24184e-014 7.95139e-015
rhumerus -38.7664 2.89199 -87.1124
rradius 69.9463
rwrist -14.2466
rhand -25.9874 -30.8252
rfingers 7.12502
rthumb 0.557957 -60.8042
lclavicle -6.24184e-014 7.95139e-015
lhumerus -60.5211 -19.5892 99.2306
lradius 113.556
lwrist 44.4312
lhand -14.7602 16.8766
lfingers 7.12502
lthumb 11.396 46.547
rfemur -27.1941 -5.03917 30.4466
rtibia 33.5439
rfoot -11.8598 10.7028
rtoes 40.8042
lfemur -50.5871 -5.1876 -13.4884
ltibia 80.7438
lfoot -2.91062 2.75629
ltoes 31.322
1226
root -8.79614 17.1336 15.794 -173.079 -220.113 -185.974
lowerback 4.25965 4.02972 3.31066
upperback 2.01141 5.57366 4.30055
thorax -0.425707 2.80775 2.31731
lowerneck -5.80189 -11.3059 -4.80716
upperneck 14.2049 -15.6701 6.6157
head 6.16728 -7.37943 1.64215
rclavicle -2.50469e-014 -6.36111e-015
rhumerus -39.3159 2.36159 -87.3962
rradius 68.666
rwrist -13.9637
rhand -26.1626 -31.1211
rfingers 7.12502
rthumb 0.388678 -61.1005
lclavicle -2.50469e-014 -6.36111e-015
lhumerus -58.8087 -20.2456 99.0379
lradius 114.446
lwrist 46.1838
lhand -14.8137 17.3626
lfingers 7.12502
lthumb 11.3444 47.0357
rfemur -26.2823 -5.10164 30.3912
rtibia 33.1209
rfoot -12.22 10.1533
rtoes 40.3141
lfemur -51.0526 -6.13881 -13.1645
ltibia 79.6497
lfoot -2.36496 1.75656
ltoes 30.8801
1227
root -8.77607 17.1405 15.8232 -173.331 -220.232 -186.119
lowerback 4.37017 3.86451 3.45465
upperback 2.09134 5.3633 4.34649
thorax -0.392448 2.70425 2.29023
lowerneck -6.15555 -11.1644 -5.0134
upperneck 14.7012 -15.4841 6.64122
head 6.3922 -7.27392 1.66302
rclavicle -9.70069e-014 3.33958e-014
rhumerus -39.5745 2.42442 -87.6156
rradius 67.3148
rwrist -13.3424
rhand -26.2211 -31.3528
rfingers 7.12502
rthumb 0.332211 -61.3323
lclavicle -9.70069e-014 3.33958e-014
lhumerus -56.6984 -20.2607 98.7946
lradius 115.101
lwrist 47.7832
lhand -14.9387 17.5782
lfingers 7.12502
lthumb 11.2239 47.258
rfemur -25.7379 -4.92738 30.468
rtibia 32.725
rfoot -12.2065 9.90661
rtoes 40.8498
lfemur -51.7925 -6.73285 -12.7414
ltibia 78.4482
lfoot -1.79558 0.679733
ltoes 31.5158
1228
root -8.75463 17.1451 15.8534 -173.529 -220.369 -186.172
lowerback 4.55463 3.86938 3.68649
upperback 2.02559 5.39009 4.1861
thorax -0.526405 2.71628 1.9803
lowerneck -6.07688 -11.1969 -4.93167
upperneck 15.0739 -15.5815 6.76333
head 6.50718 -7.29636 1.67449
rclavicle 1.22849e-013 1.59028e-014
rhumerus -40.1292 1.75348 -87.8696
rradius 65.9821
rwrist -12.3335
rhand -26.3909 -31.5119
rfingers 7.12502
rthumb 0.168239 -61.4915
lclavicle 1.22849e-013 1.59028e-014
lhumerus -54.8439 -20.9272 98.5181
lradius 115.695
lwrist 49.3192
lhand -14.372 17.4563
lfingers 7.12502
lthumb 11.7704 47.1056
rfemur -25.1884 -4.92446 30.5021
rtibia 32.3218
rfoot -12.5184 9.50166
rtoes 40.0343
lfemur -52.4211 -7.32301 -12.4029
ltibia 77.0928
lfoot -1.55845 -0.848248
ltoes 30.9071
1229
root -8.73256 17.1497 15.8872 -173.812 -220.588 -186.3
lowerback 4.66086 3.78638 3.91267
upperback 2.06155 5.29273 4.12241
thorax -0.520989 2.6687 1.78938
lowerneck -6.30745 -11.1688 -4.9785
upperneck 15.595 -15.5785 6.83044
head 6.72274 -7.26843 1.67546
rclavicle 6.91771e-014 1.90833e-014
rhumerus -40.5021 1.41378 -88.0513
rradius 64.6439
rwrist -11.4721
rhand -26.2509 -31.6293
rfingers 7.12502
rthumb 0.303434 -61.6088
lclavicle 6.91771e-014 1.90833e-014
lhumerus -52.7799 -21.3899 98.2683
lradius 116.196
lwrist 50.7469
lhand -13.9258 17.363
lfingers 7.12502
lthumb 12.2006 46.9872
rfemur -24.5825 -4.77265 30.5767
rtibia 31.9483
rfoot -12.8278 9.00476
rtoes 39.8264
lfemur -52.9082 -7.98879 -11.9564
ltibia 75.6008
lfoot -1.45348 -2.66569
ltoes 30.6759
1230
root -8.70924 17.155 15.9214 -174.111 -220.773 -186.446
lowerback 4.74217 3.62574 4.07741
upperback 2.12061 5.08896 4.1318
thorax -0.491024 2.56868 1.71504
lowerneck -6.57158 -11.0624 -5.00916
upperneck 16.1209 -15.4437 6.73886
head 6.92385 -7.18781 1.63781
rclavicle -8.74653e-015 -4.45278e-014
rhumerus -40.8342 1.33684 -88.2168
rradius 63.2879
rwrist -10.5911
rhand -26.3366 -31.4579
rfingers 7.12502
rthumb 0.220622 -61.4375
lclavicle -8.74653e-015 -4.45278e-014
lhumerus -50.5831 -21.459 97.9975
lradius 116.556
lwrist 52.0649
lhand -12.8798 17.7931
lfingers 7.12502
lthumb 13.2091 47.3546
rfemur -23.9628 -4.61344 30.6733
rtibia 31.5882
rfoot -13.1776 8.58215
rtoes 39.6556
lfemur -53.2833 -8.59093 -11.5199
ltibia 73.9857
lfoot -1.18133 -4.58872
ltoes 30.1536
1231
root -8.6862 17.1581 15.9556 -174.269 -220.984 -186.49
lowerback 4.75828 3.49194 4.15713
upperback 2.13289 4.91435 4.10503
thorax -0.478006 2.48216 1.65144
lowerneck -6.6948 -10.9828 -5.02733
upperneck 16.5406 -15.3507 6.69886
head 7.07311 -7.12979 1.62122
rclavicle 3.18055e-015 -7.79236e-014
rhumerus -41.1848 1.15141 -88.3391
rradius 61.9185
rwrist -9.71651
rhand -25.8436 -31.1395
rfingers 7.12502
rthumb 0.696807 -61.1181
lclavicle 3.18055e-015 -7.79236e-014
lhumerus -48.4619 -21.7001 97.7295
lradius 116.911
lwrist 53.5072
lhand -13.3115 17.6431
lfingers 7.12502
lthumb 12.7929 47.2312
rfemur -23.4538 -4.49411 30.7048
rtibia 31.2585
rfoot -13.5539 8.08388
rtoes 39.2434
lfemur -53.6629 -9.18114 -11.1907
ltibia 72.2485
lfoot -0.73148 -6.67244
ltoes 29.1426
1232
root -8.66291 17.159 15.9897 -174.475 -221.173 -186.679
lowerback 4.70694 3.39783 4.37095
upperback 2.13783 4.79413 4.08412
thorax -0.424827 2.42401 1.5219
lowerneck -6.78365 -10.9177 -5.00004
upperneck 16.8912 -15.2842 6.6892
head 7.19519 -7.08249 1.60854
rclavicle -3.18055e-014 4.53229e-014
rhumerus -41.5478 0.842892 -88.438
rradius 60.557
rwrist -8.71803
rhand -25.7024 -30.8291
rfingers 7.12502
rthumb 0.833148 -60.8073
lclavicle -3.18055e-014 4.53229e-014
lhumerus -46.2146 -22.0283 97.448
lradius 117.007
lwrist 54.4132
lhand -12.0777 17.9654
lfingers 7.12502
lthumb 13.9821 47.4751
rfemur -23.0177 -4.24786 30.8418
rtibia 30.9923
rfoot -13.9596 7.53141
rtoes 38.9377
lfemur -54.0249 -9.74082 -10.7221
ltibia 70.4145
lfoot -0.0386132 -8.81571
ltoes 28.2543
1233
root -8.6384 17.1611 16.0252 -174.556 -221.356 -186.686
lowerback 4.64387 3.31796 4.45642
upperback 2.13752 4.68484 4.00051
thorax -0.376495 2.37036 1.39831
lowerneck -6.7681 -10.873 -4.99402
upperneck 17.0912 -15.2497 6.75936
head 7.26066 -7.05315 1.62979
rclavicle -5.32743e-014 2.06736e-014
rhumerus -41.9138 0.526718 -88.5079
rradius 59.2557
rwrist -7.78773
rhand -25.7109 -30.4738
rfingers 7.12502
rthumb 0.82496 -60.452
lclavicle -5.32743e-014 2.06736e-014
lhumerus -43.9203 -22.4139 97.1869
lradius 116.926
lwrist 55.2286
lhand -11.0247 18.0602
lfingers 7.12502
lthumb 14.9967 47.4972
rfemur -22.6463 -4.22502 30.8691
rtibia 30.8051
rfoot -14.3396 7.12545
rtoes 38.3023
lfemur -54.2839 -10.2805 -10.429
ltibia 68.4834
lfoot 1.04108 -10.836
ltoes 27.7199
1234
root -8.61324 17.1602 16.0594 -174.631 -221.511 -186.709
lowerback 4.57116 3.22495 4.54615
upperback 2.12965 4.5585 3.94081
thorax -0.333013 2.30821 1.29768
lowerneck -6.82339 -10.8145 -4.97942
upperneck 17.3616 -15.1864 6.74817
head 7.35238 -7.01194 1.6222
rclavicle 1.94809e-014 3.81667e-014
rhumerus -42.3007 0.409024 -88.635
rradius 58.0376
rwrist -7.37903
rhand -26.1423 -30.4611
rfingers 7.12502
rthumb 0.408339 -60.4405
lclavicle 1.94809e-014 3.81667e-014
lhumerus -41.6215 -22.7102 96.9563
lradius 116.653
lwrist 55.8808
lhand -10.3517 17.7062
lfingers 7.12502
lthumb 15.6449 47.0936
rfemur -22.3804 -4.20686 30.9028
rtibia 30.7426
rfoot -14.6093 6.81502
rtoes 37.9362
lfemur -54.5031 -10.7983 -10.1469
ltibia 66.5396
lfoot 2.54447 -12.6579
ltoes 27.7283
1235
root -8.58899 17.1585 16.0945 -174.753 -221.6 -186.785
lowerback 4.48264 3.14745 4.60842
upperback 2.15235 4.4496 3.91517
thorax -0.254441 2.2556 1.24829
lowerneck -6.79393 -10.7495 -4.98987
upperneck 17.5178 -15.1102 6.76686
head 7.39571 -6.97001 1.63637
rclavicle 9.28324e-014 2.3059e-014
rhumerus -42.6449 0.308038 -88.7033
rradius 56.8629
rwrist -7.00094
rhand -26.2511 -30.4382
rfingers 7.12502
rthumb 0.303197 -60.4177
lclavicle 9.28324e-014 2.3059e-014
lhumerus -39.3445 -22.956 96.7486
lradius 116.275
lwrist 56.4568
lhand -9.03813 17.0417
lfingers 7.12502
lthumb 16.9097 46.3256
rfemur -22.1139 -4.19924 30.9828
rtibia 30.7094
rfoot -14.8283 6.62957
rtoes 37.819
lfemur -54.6019 -11.208 -9.85165
ltibia 64.5734
lfoot 4.41779 -14.2335
ltoes 28.0678
1236
root -8.56069 17.1403 16.1289 -175.001 -221.609 -187.05
lowerback 4.39929 3.0847 4.8456
upperback 2.18735 4.36722 3.90659
thorax -0.154019 2.21798 1.11912
lowerneck -6.80657 -10.6891 -5.06262
upperneck 17.6773 -15.0491 6.87545
head 7.46075 -6.93051 1.68354
rclavicle -2.64384e-014 3.33958e-014
rhumerus -42.9628 0.211873 -88.8254
rradius 55.7442
rwrist -6.77881
rhand -26.8836 -30.4854
rfingers 7.12502
rthumb -0.307692 -60.465
lclavicle -2.64384e-014 3.33958e-014
lhumerus -36.9738 -23.0279 96.4586
lradius 115.675
lwrist 57.1286
lhand -7.72276 16.439
lfingers 7.12502
lthumb 18.1756 45.6098
rfemur -21.8459 -4.18145 31.1993
rtibia 30.6549
rfoot -14.9981 6.54509
rtoes 37.6221
lfemur -54.7044 -11.5477 -9.43938
ltibia 62.6759
lfoot 6.47383 -15.5018
ltoes 28.215
